<svg version="1.0" xmlns="http://www.w3.org/2000/svg"
 width="1024.000000pt" height="1024.000000pt" viewBox="0 0 1024.000000 1024.000000"
 preserveAspectRatio="xMidYMid meet">

<g transform="translate(0.000000,1024.000000) scale(0.100000,-0.100000)"
fill="#cbd5e1" stroke="none">
<path d="M0 5120 l0 -5120 5120 0 5120 0 0 5120 0 5120 -5120 0 -5120 0 0
-5120z m3627 315 c332 -528 624 -994 649 -1035 39 -63 45 -70 39 -40 -4 19 -9
486 -12 1038 l-4 1002 210 0 211 0 0 -1330 0 -1330 -237 0 -238 0 -615 970
c-338 534 -635 1008 -659 1055 -25 46 -46 83 -46 82 -1 -1 2 -58 6 -127 4 -69
8 -542 8 -1052 l1 -928 -210 0 -210 0 0 1330 0 1330 252 -2 253 -3 602 -960z
m3063 775 l0 -190 -485 0 -485 0 0 -375 0 -375 445 0 445 0 0 -185 0 -185
-445 0 -445 0 0 -395 0 -395 515 0 515 0 0 -185 0 -185 -730 0 -730 0 0 1330
0 1330 700 0 700 0 0 -190z m2130 0 l0 -190 -375 0 -375 0 0 -1140 0 -1140
-215 0 -215 0 0 1140 0 1140 -370 0 -370 0 0 190 0 190 960 0 960 0 0 -190z
m-6874 -2038 c53 -27 117 -100 132 -150 50 -166 -71 -322 -249 -322 -37 0 -80
5 -96 11 -80 30 -143 100 -164 184 -29 115 47 246 170 292 51 19 156 11 207
-15z"/>
</g>
</svg>
