<svg xmlns="http://www.w3.org/2000/svg" xmlns:xlink="http://www.w3.org/1999/xlink" width="500" zoomAndPan="magnify" viewBox="0 0 375 374.999991" height="500" preserveAspectRatio="xMidYMid meet" version="1.0"><defs><g/></defs><rect x="-37.5" width="450" fill="#ffffff" y="-37.499999" height="449.999989" fill-opacity="1"/><rect x="-37.5" width="450" fill="#ffffff" y="-37.499999" height="449.999989" fill-opacity="1"/><rect x="-37.5" width="450" fill="#1f1e1e" y="-37.499999" height="449.999989" fill-opacity="1"/><g fill="#ffffff" fill-opacity="1"><g transform="translate(114.386715, 204.749987)"><g><path d="M 31.84375 1.90625 L 31.84375 6.09375 L 5.25 6.09375 L 5.25 1.90625 Z M 31.84375 1.90625 "/></g></g></g><g fill="#ffffff" fill-opacity="1"><g transform="translate(151.030975, 204.749987)"><g><path d="M 13.546875 0.453125 C 11.453125 0.453125 9.570312 0.09375 7.90625 -0.625 C 6.238281 -1.34375 4.921875 -2.34375 3.953125 -3.625 C 2.984375 -4.90625 2.445312 -6.378906 2.34375 -8.046875 L 7.046875 -8.046875 C 7.179688 -6.679688 7.820312 -5.566406 8.96875 -4.703125 C 10.125 -3.835938 11.632812 -3.40625 13.5 -3.40625 C 15.226562 -3.40625 16.59375 -3.785156 17.59375 -4.546875 C 18.59375 -5.316406 19.09375 -6.285156 19.09375 -7.453125 C 19.09375 -8.648438 18.5625 -9.539062 17.5 -10.125 C 16.4375 -10.707031 14.785156 -11.28125 12.546875 -11.84375 C 10.515625 -12.382812 8.859375 -12.925781 7.578125 -13.46875 C 6.296875 -14.019531 5.195312 -14.835938 4.28125 -15.921875 C 3.363281 -17.003906 2.90625 -18.429688 2.90625 -20.203125 C 2.90625 -21.597656 3.320312 -22.878906 4.15625 -24.046875 C 4.988281 -25.210938 6.171875 -26.132812 7.703125 -26.8125 C 9.234375 -27.5 10.984375 -27.84375 12.953125 -27.84375 C 15.984375 -27.84375 18.429688 -27.078125 20.296875 -25.546875 C 22.160156 -24.015625 23.160156 -21.914062 23.296875 -19.25 L 18.75 -19.25 C 18.644531 -20.6875 18.066406 -21.835938 17.015625 -22.703125 C 15.972656 -23.566406 14.566406 -24 12.796875 -24 C 11.160156 -24 9.859375 -23.648438 8.890625 -22.953125 C 7.929688 -22.253906 7.453125 -21.335938 7.453125 -20.203125 C 7.453125 -19.296875 7.742188 -18.550781 8.328125 -17.96875 C 8.910156 -17.382812 9.640625 -16.914062 10.515625 -16.5625 C 11.398438 -16.21875 12.628906 -15.832031 14.203125 -15.40625 C 16.171875 -14.863281 17.769531 -14.332031 19 -13.8125 C 20.226562 -13.300781 21.285156 -12.53125 22.171875 -11.5 C 23.054688 -10.46875 23.515625 -9.117188 23.546875 -7.453125 C 23.546875 -5.953125 23.128906 -4.597656 22.296875 -3.390625 C 21.460938 -2.191406 20.285156 -1.25 18.765625 -0.5625 C 17.253906 0.113281 15.515625 0.453125 13.546875 0.453125 Z M 13.546875 0.453125 "/></g></g></g><g fill="#ffffff" fill-opacity="1"><g transform="translate(177.12689, 204.749987)"><g><path d="M 36.796875 -27.90625 C 38.929688 -27.90625 40.832031 -27.460938 42.5 -26.578125 C 44.164062 -25.691406 45.484375 -24.363281 46.453125 -22.59375 C 47.421875 -20.832031 47.90625 -18.6875 47.90625 -16.15625 L 47.90625 0 L 43.40625 0 L 43.40625 -15.5 C 43.40625 -18.226562 42.726562 -20.316406 41.375 -21.765625 C 40.019531 -23.222656 38.195312 -23.953125 35.90625 -23.953125 C 33.53125 -23.953125 31.644531 -23.191406 30.25 -21.671875 C 28.851562 -20.160156 28.15625 -17.96875 28.15625 -15.09375 L 28.15625 0 L 23.65625 0 L 23.65625 -15.5 C 23.65625 -18.226562 22.976562 -20.316406 21.625 -21.765625 C 20.269531 -23.222656 18.445312 -23.953125 16.15625 -23.953125 C 13.78125 -23.953125 11.894531 -23.191406 10.5 -21.671875 C 9.101562 -20.160156 8.40625 -17.96875 8.40625 -15.09375 L 8.40625 0 L 3.84375 0 L 3.84375 -27.40625 L 8.40625 -27.40625 L 8.40625 -23.453125 C 9.300781 -24.878906 10.503906 -25.976562 12.015625 -26.75 C 13.535156 -27.519531 15.210938 -27.90625 17.046875 -27.90625 C 19.347656 -27.90625 21.378906 -27.382812 23.140625 -26.34375 C 24.910156 -25.3125 26.226562 -23.796875 27.09375 -21.796875 C 27.863281 -23.734375 29.128906 -25.234375 30.890625 -26.296875 C 32.660156 -27.367188 34.628906 -27.90625 36.796875 -27.90625 Z M 36.796875 -27.90625 "/></g></g></g><g fill="#ffffff" fill-opacity="1"><g transform="translate(228.618828, 204.749987)"><g><path d="M 17.453125 -27.90625 C 19.515625 -27.90625 21.378906 -27.460938 23.046875 -26.578125 C 24.710938 -25.691406 26.019531 -24.363281 26.96875 -22.59375 C 27.925781 -20.832031 28.40625 -18.6875 28.40625 -16.15625 L 28.40625 0 L 23.90625 0 L 23.90625 -15.5 C 23.90625 -18.226562 23.21875 -20.316406 21.84375 -21.765625 C 20.476562 -23.222656 18.613281 -23.953125 16.25 -23.953125 C 13.851562 -23.953125 11.945312 -23.203125 10.53125 -21.703125 C 9.113281 -20.203125 8.40625 -18.019531 8.40625 -15.15625 L 8.40625 0 L 3.84375 0 L 3.84375 -37 L 8.40625 -37 L 8.40625 -23.5 C 9.300781 -24.894531 10.539062 -25.976562 12.125 -26.75 C 13.707031 -27.519531 15.484375 -27.90625 17.453125 -27.90625 Z M 17.453125 -27.90625 "/></g></g></g></svg>